mastitorrents.com
 
http://mastitorrents.com/forums/index.php

!~! MEDIA INFO !~!

General
Complete name : WWE Friday Night Smackdown - 23-7-2010 - Xvid.avi
Format : AVI
Format/Info : Audio Video Interleave
File size : 746 MiB
Duration : 1h 24mn
Overall bit rate : 1 241 Kbps
Writing application : VirtualDubMod 1.5.10.2 (build 2540/release)
Writing library : VirtualDubMod build 2540/release

Video
ID : 0
Format : MPEG-4 Visual
Format profile : Advanced Simple@L5
Format settings, BVOP : Yes
Format settings, QPel : No
Format settings, GMC : No warppoints
Format settings, Matrix : Default (H.263)
Codec ID : XVID
Codec ID/Hint : XviD
Duration : 1h 24mn
Bit rate : 1 119 Kbps
Width : 624 pixels
Height : 352 pixels
Display aspect ratio : 16:9
Frame rate : 25.000 fps
Color space : YUV
Chroma subsampling : 4:2:0
Bit depth : 8 bits
Scan type : Progressive
Bits/(Pixel*Frame) : 0.204
Stream size : 673 MiB (90%)
Writing library : XviD 1.2.1 (UTC 2008-12-04)

Audio
ID : 1
Format : MPEG Audio
Format version : Version 1
Format profile : Layer 3
Mode : Joint stereo
Mode extension : MS Stereo
Codec ID : 55
Codec ID/Hint : MP3
Duration : 1h 24mn
Bit rate mode : Variable
Bit rate : 109 Kbps
Nominal bit rate : 128 Kbps
Channel(s) : 2 channels
Sampling rate : 48.0 KHz
Stream size : 65.7 MiB (9%)
Alignment : Aligned on interleaves
Interleave, duration : 24 ms (0.60 video frame)
Interleave, preload duration : 495 ms
Writing library : LAME3.90.
Encoding settings : -m j -V 4 -q 2 -lowpass 17.6 --abr 128

Screenshots

 
http://img695.imageshack.us/img695/939/2ccxkax.jpg 
http://img299.imageshack.us/img299/1821/2m6vcr4.jpg 
http://img811.imageshack.us/img811/364/2s8mmva.jpg 
http://img191.imageshack.us/img191/5708/2vafgv9.jpg 
http://img718.imageshack.us/img718/4334/2z5ork2.jpg 
http://img826.imageshack.us/img826/7146/1624tn9.jpg 
http://img594.imageshack.us/img594/6388/oky2dw.jpg 
http://img186.imageshack.us/img186/3152/xbxufm.jpg